# xmcd
#
# Track frame offsets:
#	150
#	23507
#	44531
#
# Disc length: 901 seconds
#
# Revision: 1
# Processed by: cddbd v1.5PL3 Copyright (c) Steve Scherf et al.
# Submitted via: CDex 1.50Beta5
#
DISCID=1a038303
DTITLE=小林建樹 - Replay
DYEAR=1900
DGENRE=Pop
TTITLE0=Replay
TTITLE1=ノバラ
TTITLE2=REPLAY（Instrumental）
EXTD=
EXTT0=
EXTT1=
EXTT2=
PLAYORDER=
